<svg viewBox="0 0 36 10" xmlns="http://www.w3.org/2000/svg" shape-rendering="crispEdges" fill="currentColor">
  <rect x="0" y="0" width="1" height="1" />
  <rect x="4" y="0" width="1" height="1" />
  <rect x="6" y="0" width="1" height="1" />
  <rect x="7" y="0" width="1" height="1" />
  <rect x="9" y="0" width="1" height="1" />
  <rect x="13" y="0" width="1" height="1" />
  <rect x="15" y="0" width="1" height="1" />
  <rect x="19" y="0" width="1" height="1" />
  <rect x="21" y="0" width="1" height="1" />
  <rect x="22" y="0" width="1" height="1" />
  <rect x="24" y="0" width="1" height="1" />
  <rect x="28" y="0" width="1" height="1" />
  <rect x="31" y="0" width="1" height="1" />
  <rect x="32" y="0" width="1" height="1" />
  <rect x="33" y="0" width="1" height="1" />
  <rect x="34" y="0" width="1" height="1" />
  <rect x="0" y="1" width="1" height="1" />
  <rect x="2" y="1" width="1" height="1" />
  <rect x="4" y="1" width="1" height="1" />
  <rect x="6" y="1" width="1" height="1" />
  <rect x="7" y="1" width="1" height="1" />
  <rect x="9" y="1" width="1" height="1" />
  <rect x="10" y="1" width="1" height="1" />
  <rect x="13" y="1" width="1" height="1" />
  <rect x="15" y="1" width="1" height="1" />
  <rect x="16" y="1" width="1" height="1" />
  <rect x="19" y="1" width="1" height="1" />
  <rect x="21" y="1" width="1" height="1" />
  <rect x="22" y="1" width="1" height="1" />
  <rect x="24" y="1" width="1" height="1" />
  <rect x="25" y="1" width="1" height="1" />
  <rect x="28" y="1" width="1" height="1" />
  <rect x="31" y="1" width="1" height="1" />
  <rect x="0" y="2" width="1" height="1" />
  <rect x="2" y="2" width="1" height="1" />
  <rect x="4" y="2" width="1" height="1" />
  <rect x="6" y="2" width="1" height="1" />
  <rect x="7" y="2" width="1" height="1" />
  <rect x="9" y="2" width="1" height="1" />
  <rect x="11" y="2" width="1" height="1" />
  <rect x="13" y="2" width="1" height="1" />
  <rect x="15" y="2" width="1" height="1" />
  <rect x="17" y="2" width="1" height="1" />
  <rect x="19" y="2" width="1" height="1" />
  <rect x="21" y="2" width="1" height="1" />
  <rect x="22" y="2" width="1" height="1" />
  <rect x="24" y="2" width="1" height="1" />
  <rect x="26" y="2" width="1" height="1" />
  <rect x="28" y="2" width="1" height="1" />
  <rect x="31" y="2" width="1" height="1" />
  <rect x="33" y="2" width="1" height="1" />
  <rect x="34" y="2" width="1" height="1" />
  <rect x="1" y="3" width="1" height="1" />
  <rect x="2" y="3" width="1" height="1" />
  <rect x="3" y="3" width="1" height="1" />
  <rect x="6" y="3" width="1" height="1" />
  <rect x="7" y="3" width="1" height="1" />
  <rect x="9" y="3" width="1" height="1" />
  <rect x="12" y="3" width="1" height="1" />
  <rect x="13" y="3" width="1" height="1" />
  <rect x="15" y="3" width="1" height="1" />
  <rect x="18" y="3" width="1" height="1" />
  <rect x="19" y="3" width="1" height="1" />
  <rect x="21" y="3" width="1" height="1" />
  <rect x="22" y="3" width="1" height="1" />
  <rect x="24" y="3" width="1" height="1" />
  <rect x="27" y="3" width="1" height="1" />
  <rect x="28" y="3" width="1" height="1" />
  <rect x="31" y="3" width="1" height="1" />
  <rect x="32" y="3" width="1" height="1" />
  <rect x="33" y="3" width="1" height="1" />
  <rect x="34" y="3" width="1" height="1" />
  <rect x="0" y="5" width="1" height="1" />
  <rect x="1" y="5" width="1" height="1" />
  <rect x="2" y="5" width="1" height="1" />
  <rect x="3" y="5" width="1" height="1" />
  <rect x="6" y="5" width="1" height="1" />
  <rect x="7" y="5" width="1" height="1" />
  <rect x="9" y="5" width="1" height="1" />
  <rect x="13" y="5" width="1" height="1" />
  <rect x="15" y="5" width="1" height="1" />
  <rect x="16" y="5" width="1" height="1" />
  <rect x="17" y="5" width="1" height="1" />
  <rect x="18" y="5" width="1" height="1" />
  <rect x="20" y="5" width="1" height="1" />
  <rect x="0" y="6" width="1" height="1" />
  <rect x="4" y="6" width="1" height="1" />
  <rect x="6" y="6" width="1" height="1" />
  <rect x="7" y="6" width="1" height="1" />
  <rect x="10" y="6" width="1" height="1" />
  <rect x="12" y="6" width="1" height="1" />
  <rect x="14" y="6" width="1" height="1" />
  <rect x="20" y="6" width="1" height="1" />
  <rect x="0" y="7" width="1" height="1" />
  <rect x="1" y="7" width="1" height="1" />
  <rect x="2" y="7" width="1" height="1" />
  <rect x="3" y="7" width="1" height="1" />
  <rect x="6" y="7" width="1" height="1" />
  <rect x="7" y="7" width="1" height="1" />
  <rect x="10" y="7" width="1" height="1" />
  <rect x="11" y="7" width="1" height="1" />
  <rect x="12" y="7" width="1" height="1" />
  <rect x="14" y="7" width="1" height="1" />
  <rect x="20" y="7" width="1" height="1" />
  <rect x="0" y="8" width="1" height="1" />
  <rect x="6" y="8" width="1" height="1" />
  <rect x="7" y="8" width="1" height="1" />
  <rect x="10" y="8" width="1" height="1" />
  <rect x="12" y="8" width="1" height="1" />
  <rect x="14" y="8" width="1" height="1" />
  <rect x="0" y="9" width="1" height="1" />
  <rect x="6" y="9" width="1" height="1" />
  <rect x="7" y="9" width="1" height="1" />
  <rect x="9" y="9" width="1" height="1" />
  <rect x="13" y="9" width="1" height="1" />
  <rect x="15" y="9" width="1" height="1" />
  <rect x="16" y="9" width="1" height="1" />
  <rect x="17" y="9" width="1" height="1" />
  <rect x="18" y="9" width="1" height="1" />
  <rect x="20" y="9" width="1" height="1" />
  <rect x="21" y="9" width="1" height="1" />
  <rect x="22" y="9" width="1" height="1" />
  <rect x="23" y="9" width="1" height="1" />
</svg> 